<svg width="18" height="18" viewBox="0 0 18 18" fill="none" xmlns="http://www.w3.org/2000/svg">
<path d="M9 1.6875C4.968 1.6875 1.6875 4.968 1.6875 9C1.6875 13.032 4.968 16.3125 9 16.3125C13.032 16.3125 16.3125 13.032 16.3125 9C16.3125 4.968 13.032 1.6875 9 1.6875ZM9 2.8125C12.4239 2.8125 15.1875 5.57606 15.1875 9C15.1875 12.4239 12.4239 15.1875 9 15.1875C5.57606 15.1875 2.8125 12.4239 2.8125 9C2.8125 5.57606 5.57606 2.8125 9 2.8125ZM8.4375 5.625V8.4375H5.625V9.5625H8.4375V12.375H9.5625V9.5625H12.375V8.4375H9.5625V5.625H8.4375Z" fill="black"/>
</svg>
